<svg width="16" height="20" viewBox="0 0 16 20" fill="none" xmlns="http://www.w3.org/2000/svg">
<path d="M11.9534 5C11.9534 7.20914 10.1625 9 7.9534 9C5.74426 9 3.9534 7.20914 3.9534 5C3.9534 2.79086 5.74426 1 7.9534 1C10.1625 1 11.9534 2.79086 11.9534 5Z" stroke="#33363F" stroke-width="2" stroke-linecap="round"/>
<path d="M1.29128 16.3206C1.95236 13.5269 4.72512 12 7.59598 12H8.31082C11.1817 12 13.9544 13.5269 14.6155 16.3206C14.7434 16.8611 14.8451 17.4268 14.9023 18.0016C14.957 18.5512 14.5057 19 13.9534 19H1.9534C1.40111 19 0.949814 18.5512 1.0045 18.0016C1.0617 17.4268 1.16336 16.8611 1.29128 16.3206Z" stroke="#33363F" stroke-width="2" stroke-linecap="round"/>
</svg>
